 <svg  version="1.0" xmlns="http://www.w3.org/2000/svg"  width="150.000000pt" height="150.000000pt" viewBox="0 0 300.000000 300.000000"  preserveAspectRatio="xMidYMid meet">  <g transform="translate(0.000000,300.000000) scale(0.100000,-0.100000)" fill="#ffffff" stroke="none"> <path d="M570 1966 c0 -9 17 -15 52 -18 66 -7 84 -28 93 -111 12 -111 1 -799 -12 -823 -14 -24 -61 -44 -104 -44 -19 0 -29 -5 -29 -15 0 -13 51 -15 398 -15 l397 0 46 130 c38 107 43 130 30 130 -9 0 -27 -19 -40 -42 -36 -64 -98 -125 -144 -143 -34 -12 -75 -15 -207 -13 -164 3 -164 3 -177 28 -9 18 -13 84 -13 228 l0 202 128 0 c70 0 145 -5 167 -10 51 -11 82 -47 90 -105 5 -28 12 -45 21 -45 11 0 14 33 14 180 0 153 -2 180 -15 180 -9 0 -15 -10 -15 -26 0 -36 -25 -86 -52 -104 -17 -11 -62 -16 -180 -18 l-158 -4 0 207 0 206 200 -3 200 -3 31 -31 c19 -20 36 -51 44 -80 8 -33 18 -50 30 -53 16 -3 17 2 11 44 -3 26 -6 79 -6 116 l0 69 -400 0 c-332 0 -400 -2 -400 -14z m251 -228 c-2 -156 1 -203 13 -225 12 -24 12 -32 0 -53 -19 -34 -18 -377 0 -432 8 -20 11 -40 8 -43 -3 -3 -27 -5 -54 -5 l-49 0 8 53 c10 68 10 786 0 855 l-8 53 42 -3 42 -3 -2 -197z m419 -258 c0 -11 -4 -20 -9 -20 -13 0 -32 26 -24 33 13 14 33 6 33 -13z"/> <path d="M1869 1937 c-151 -52 -273 -185 -315 -342 -19 -68 -18 -223 2 -298 48 -188 197 -325 385 -357 182 -31 375 58 479 219 94 148 106 382 25 541 -42 82 -136 175 -223 217 -71 35 -82 38 -181 41 -90 2 -116 -1 -172 -21z m276 -54 c88 -46 152 -146 175 -273 16 -90 14 -293 -5 -363 -39 -149 -119 -233 -245 -255 -70 -13 -141 0 -200 36 -121 74 -189 293 -162 522 22 187 91 300 209 345 55 21 176 14 228 -12z m225 -141 c54 -74 80 -150 87 -248 11 -148 -35 -290 -118 -369 -27 -26 -39 -33 -34 -20 58 143 60 153 60 335 0 156 -2 182 -23 245 -13 39 -32 85 -43 103 -25 43 -24 46 7 26 14 -9 43 -42 64 -72z m-645 21 c-44 -89 -59 -166 -59 -308 0 -149 15 -223 68 -327 19 -38 32 -68 29 -68 -18 0 -68 49 -102 101 -57 85 -81 170 -81 283 1 105 11 158 46 231 24 52 109 153 119 143 3 -3 -6 -28 -20 -55z"/> <path d="M602 753 c3 -58 3 -58 37 -61 18 -2 38 1 44 7 8 8 0 11 -26 11 -30 0 -37 4 -37 19 0 15 8 21 33 24 l32 4 -32 1 c-25 2 -33 7 -33 21 0 15 8 21 33 24 27 3 26 4 -11 5 l-43 2 3 -57z"/> <path d="M760 750 c0 -36 4 -59 10 -55 5 3 7 12 3 20 -9 24 40 18 55 -6 7 -12 16 -18 19 -15 3 3 0 12 -6 20 -10 11 -9 19 1 35 19 30 0 55 -46 59 l-36 3 0 -61z m68 23 c2 -14 -3 -23 -17 -28 -28 -9 -41 1 -41 31 0 22 4 25 28 22 19 -2 28 -9 30 -25z"/> <path d="M922 753 l3 -58 37 1 c47 2 68 18 68 54 0 36 -29 60 -74 60 l-37 0 3 -57z m78 27 c11 -11 20 -24 20 -29 0 -18 -32 -41 -56 -41 -22 0 -24 4 -24 45 0 38 3 45 20 45 11 0 29 -9 40 -20z"/> <path d="M1102 753 c3 -58 3 -58 37 -61 18 -2 38 1 44 7 8 8 0 11 -26 11 -30 0 -37 4 -37 19 0 15 8 21 33 24 l32 4 -32 1 c-25 2 -33 7 -33 21 0 15 8 21 33 24 27 3 26 4 -11 5 l-43 2 3 -57z"/> <path d="M1262 748 l1 -63 6 49 6 49 17 -36 c10 -21 21 -37 26 -37 5 0 16 15 25 33 l16 32 0 -37 c1 -20 6 -40 11 -43 6 -4 10 17 10 54 0 34 -4 61 -8 61 -5 0 -19 -19 -32 -42 l-23 -41 -18 36 c-30 58 -39 55 -37 -15z"/> <path d="M1647 792 c-36 -40 -11 -95 43 -95 36 0 60 23 60 58 0 48 -70 73 -103 37z m72 -11 c25 -25 17 -59 -15 -67 -14 -4 -31 -1 -39 6 -20 17 -19 57 3 69 24 14 29 14 51 -8z"/> <path d="M1843 801 l39 -6 -36 -45 c-19 -24 -33 -46 -30 -49 10 -11 94 -12 94 -2 0 6 -16 11 -35 11 -38 0 -44 10 -20 30 9 7 25 26 36 42 l20 28 -53 -1 c-50 -2 -51 -2 -15 -8z"/> <path d="M1971 755 c1 -30 5 -58 10 -61 5 -3 9 4 9 15 0 33 20 35 51 5 16 -15 29 -23 29 -18 0 6 -11 21 -25 34 l-25 24 27 28 c37 39 17 35 -24 -4 l-33 -32 0 32 c0 18 -4 32 -10 32 -5 0 -9 -25 -9 -55z"/> <path d="M2144 754 c-24 -53 -27 -88 -5 -46 14 27 68 28 76 1 4 -11 9 -18 12 -15 8 8 -38 116 -49 116 -5 0 -20 -25 -34 -56z m49 6 c4 -15 0 -20 -14 -20 -20 0 -23 8 -13 34 7 20 20 13 27 -14z"/> <path d="M2300 749 c0 -40 4 -58 11 -54 6 4 8 23 4 49 l-6 41 38 -43 c21 -23 41 -42 46 -42 11 0 9 110 -2 110 -6 0 -11 -18 -13 -41 l-3 -41 -30 41 c-16 22 -33 41 -37 41 -5 0 -8 -27 -8 -61z"/> </g> </svg> 